<svg width="622" height="164" viewBox="0 0 622 164" fill="none" xmlns="http://www.w3.org/2000/svg">
<path d="M0 123.793L20.5396 67.7843C21.5651 65.0095 23.2541 62.9284 25.6066 61.541C27.9592 60.0932 30.6133 59.3694 33.5691 59.3694C36.5249 59.3694 39.179 60.0631 41.5316 61.4505C43.8841 62.7775 45.5732 64.8587 46.5986 67.6938L67.2287 123.793H50.8513L46.8701 111.578H19.9967L15.8345 123.793H0ZM23.8874 99.0008H42.9793L34.9263 73.7561C34.8057 73.3942 34.6247 73.1529 34.3835 73.0323C34.2025 72.8513 33.9612 72.7608 33.6596 72.7608C33.358 72.7608 33.0865 72.8513 32.8452 73.0323C32.6643 73.2132 32.5436 73.4545 32.4833 73.7561L23.8874 99.0008ZM67.0626 123.793V57.7407H81.0874V123.793H67.0626ZM110.271 123.793C105.023 123.793 100.408 122.828 96.427 120.898C92.4458 118.907 89.3392 116.193 87.1073 112.754C84.9357 109.256 83.8499 105.214 83.8499 100.63C83.8499 95.5625 84.9056 91.2193 87.0168 87.6C89.1281 83.9807 91.9331 81.2059 95.4317 79.2756C98.9907 77.285 102.912 76.2896 107.194 76.2896C112.081 76.2896 116.152 77.3151 119.41 79.3661C122.727 81.417 125.231 84.222 126.92 87.781C128.609 91.2796 129.453 95.291 129.453 99.8152C129.453 100.599 129.393 101.534 129.272 102.62C129.212 103.646 129.121 104.46 129.001 105.063H98.5986C98.9606 106.632 99.6543 107.959 100.68 109.044C101.705 110.13 103.002 110.945 104.57 111.487C106.139 111.97 107.888 112.211 109.818 112.211H124.024V123.793H110.271ZM98.2367 96.2863H115.881C115.76 95.3212 115.579 94.3862 115.338 93.4814C115.097 92.5765 114.705 91.7924 114.162 91.1288C113.679 90.405 113.106 89.8017 112.442 89.3192C111.779 88.7763 110.995 88.354 110.09 88.0524C109.245 87.7508 108.28 87.6 107.194 87.6C105.807 87.6 104.57 87.8413 103.485 88.3238C102.399 88.8064 101.494 89.47 100.77 90.3145C100.046 91.0987 99.4733 92.0336 99.051 93.1194C98.6891 94.1449 98.4177 95.2005 98.2367 96.2863ZM101.042 70.7702L108.914 59.2789H121.4L113.528 70.7702H101.042ZM131.577 123.793V96.3768C131.577 92.5765 132.452 89.1684 134.201 86.1523C136.011 83.0758 138.575 80.663 141.893 78.9136C145.21 77.1643 149.161 76.2896 153.746 76.2896C156.038 76.2896 158.149 76.5611 160.08 77.104C162.01 77.5866 163.759 78.2803 165.328 79.1851C166.956 80.0296 168.344 81.0551 169.49 82.2615H169.671C170.877 81.0551 172.265 80.0296 173.833 79.1851C175.462 78.2803 177.241 77.5866 179.171 77.104C181.162 76.5611 183.303 76.2896 185.596 76.2896C190.18 76.2896 194.131 77.1643 197.449 78.9136C200.767 80.663 203.33 83.0758 205.14 86.1523C206.95 89.1684 207.854 92.5765 207.854 96.3768V123.793H193.739V96.8292C193.739 95.3212 193.347 93.9639 192.563 92.7575C191.839 91.4907 190.844 90.4653 189.577 89.6811C188.31 88.8969 186.862 88.5048 185.234 88.5048C183.605 88.5048 182.127 88.8969 180.8 89.6811C179.533 90.4653 178.538 91.4907 177.814 92.7575C177.09 93.9639 176.728 95.3212 176.728 96.8292V123.793H162.704V96.8292C162.704 95.3212 162.311 93.9639 161.527 92.7575C160.803 91.4907 159.778 90.4653 158.451 89.6811C157.184 88.8969 155.736 88.5048 154.108 88.5048C152.479 88.5048 151.001 88.8969 149.674 89.6811C148.407 90.4653 147.412 91.4907 146.688 92.7575C145.964 93.9639 145.602 95.3212 145.602 96.8292V123.793H131.577ZM254.06 124.879C250.199 124.879 246.701 124.276 243.564 123.069C240.488 121.863 237.894 120.144 235.783 117.912C233.671 115.619 232.043 112.935 230.896 109.859C229.75 106.782 229.177 103.434 229.177 99.8152C229.177 95.1101 230.112 91.0082 231.982 87.5095C233.913 84.0108 236.537 81.2662 239.854 79.2756C243.232 77.285 247.093 76.2896 251.436 76.2896C253.306 76.2896 255.055 76.5309 256.684 77.0135C258.373 77.4961 259.881 78.2199 261.208 79.1851C262.596 80.0899 263.742 81.1757 264.647 82.4425H264.918V57.7407H278.943V99.7247C278.943 104.792 277.917 109.225 275.866 113.026C273.815 116.826 270.92 119.752 267.18 121.802C263.5 123.853 259.127 124.879 254.06 124.879ZM254.06 112.754C256.232 112.754 258.102 112.241 259.67 111.216C261.299 110.13 262.535 108.682 263.38 106.873C264.224 105.003 264.647 102.922 264.647 100.63C264.647 98.3373 264.224 96.2863 263.38 94.4767C262.535 92.667 261.299 91.2495 259.67 90.224C258.102 89.1382 256.232 88.5953 254.06 88.5953C251.949 88.5953 250.079 89.1382 248.45 90.224C246.821 91.2495 245.585 92.667 244.74 94.4767C243.896 96.2863 243.474 98.3373 243.474 100.63C243.474 102.922 243.896 105.003 244.74 106.873C245.585 108.682 246.821 110.13 248.45 111.216C250.079 112.241 251.949 112.754 254.06 112.754ZM306.603 124.879C301.838 124.879 297.555 123.823 293.754 121.712C289.954 119.601 286.938 116.705 284.706 113.026C282.535 109.346 281.449 105.214 281.449 100.63C281.449 95.9847 282.535 91.8527 284.706 88.2334C286.938 84.5537 289.954 81.6583 293.754 79.547C297.555 77.3754 301.838 76.2896 306.603 76.2896C311.368 76.2896 315.621 77.3754 319.361 79.547C323.161 81.6583 326.147 84.5537 328.319 88.2334C330.551 91.8527 331.667 95.9847 331.667 100.63C331.667 105.214 330.551 109.346 328.319 113.026C326.147 116.705 323.161 119.601 319.361 121.712C315.561 123.823 311.308 124.879 306.603 124.879ZM306.603 112.664C308.835 112.664 310.765 112.121 312.394 111.035C314.023 109.949 315.289 108.502 316.194 106.692C317.099 104.882 317.551 102.831 317.551 100.539C317.551 98.3071 317.099 96.2863 316.194 94.4767C315.289 92.667 314.023 91.2193 312.394 90.1335C310.765 89.0477 308.835 88.5048 306.603 88.5048C304.371 88.5048 302.411 89.0477 300.722 90.1335C299.093 91.2193 297.826 92.667 296.921 94.4767C296.016 96.2863 295.564 98.3071 295.564 100.539C295.564 102.831 296.016 104.882 296.921 106.692C297.826 108.502 299.093 109.949 300.722 111.035C302.411 112.121 304.371 112.664 306.603 112.664ZM384.119 123.793C378.931 123.733 374.256 122.888 370.094 121.26C365.932 119.631 362.403 117.399 359.508 114.564C356.612 111.729 354.38 108.411 352.812 104.611C351.244 100.75 350.46 96.5879 350.46 92.1241C350.46 87.6603 351.244 83.5283 352.812 79.728C354.38 75.8674 356.612 72.5195 359.508 69.6844C362.464 66.8493 365.992 64.6174 370.094 62.9887C374.256 61.36 378.931 60.5155 384.119 60.4552H393.891V73.1227H384.481C381.646 73.1831 379.052 73.6958 376.7 74.6609C374.407 75.6261 372.417 76.9532 370.728 78.6422C369.099 80.3312 367.832 82.3218 366.927 84.6141C366.083 86.9063 365.661 89.4096 365.661 92.1241C365.661 94.8386 366.083 97.342 366.927 99.6342C367.832 101.926 369.099 103.917 370.728 105.606C372.417 107.295 374.407 108.622 376.7 109.587C379.052 110.552 381.646 111.065 384.481 111.126H393.891V123.793H384.119ZM419.766 124.879C415.001 124.879 410.718 123.823 406.918 121.712C403.118 119.601 400.102 116.705 397.87 113.026C395.698 109.346 394.612 105.214 394.612 100.63C394.612 95.9847 395.698 91.8527 397.87 88.2334C400.102 84.5537 403.118 81.6583 406.918 79.547C410.718 77.3754 415.001 76.2896 419.766 76.2896C424.532 76.2896 428.785 77.3754 432.525 79.547C436.325 81.6583 439.311 84.5537 441.482 88.2334C443.714 91.8527 444.83 95.9847 444.83 100.63C444.83 105.214 443.714 109.346 441.482 113.026C439.311 116.705 436.325 119.601 432.525 121.712C428.724 123.823 424.472 124.879 419.766 124.879ZM419.766 112.664C421.998 112.664 423.929 112.121 425.557 111.035C427.186 109.949 428.453 108.502 429.358 106.692C430.262 104.882 430.715 102.831 430.715 100.539C430.715 98.3071 430.262 96.2863 429.358 94.4767C428.453 92.667 427.186 91.2193 425.557 90.1335C423.929 89.0477 421.998 88.5048 419.766 88.5048C417.535 88.5048 415.574 89.0477 413.885 90.1335C412.256 91.2193 410.99 92.667 410.085 94.4767C409.18 96.2863 408.728 98.3071 408.728 100.539C408.728 102.831 409.18 104.882 410.085 106.692C410.99 108.502 412.256 109.949 413.885 111.035C415.574 112.121 417.535 112.664 419.766 112.664ZM413.342 70.7702L421.214 59.2789H433.701L425.829 70.7702H413.342ZM470.088 124.879C466.227 124.879 462.728 124.276 459.592 123.069C456.515 121.863 453.921 120.144 451.81 117.912C449.699 115.619 448.07 112.935 446.924 109.859C445.778 106.782 445.205 103.434 445.205 99.8152C445.205 95.1101 446.14 91.0082 448.01 87.5095C449.94 84.0108 452.564 81.2662 455.882 79.2756C459.26 77.285 463.12 76.2896 467.464 76.2896C469.334 76.2896 471.083 76.5309 472.712 77.0135C474.401 77.4961 475.909 78.2199 477.236 79.1851C478.623 80.0899 479.769 81.1757 480.674 82.4425H480.946V57.7407H494.97V99.7247C494.97 104.792 493.945 109.225 491.894 113.026C489.843 116.826 486.948 119.752 483.208 121.802C479.528 123.853 475.155 124.879 470.088 124.879ZM470.088 112.754C472.259 112.754 474.129 112.241 475.698 111.216C477.326 110.13 478.563 108.682 479.407 106.873C480.252 105.003 480.674 102.922 480.674 100.63C480.674 98.3373 480.252 96.2863 479.407 94.4767C478.563 92.667 477.326 91.2495 475.698 90.224C474.129 89.1382 472.259 88.5953 470.088 88.5953C467.976 88.5953 466.106 89.1382 464.478 90.224C462.849 91.2495 461.612 92.667 460.768 94.4767C459.923 96.2863 459.501 98.3373 459.501 100.63C459.501 102.922 459.923 105.003 460.768 106.873C461.612 108.682 462.849 110.13 464.478 111.216C466.106 112.241 467.976 112.754 470.088 112.754ZM499.648 123.793V77.3754H513.763V123.793H499.648ZM506.706 72.1274C504.474 72.1274 502.543 71.3131 500.915 69.6844C499.286 68.0557 498.472 66.1254 498.472 63.8935C498.472 61.6616 499.286 59.7313 500.915 58.1026C502.543 56.4136 504.474 55.5691 506.706 55.5691C508.937 55.5691 510.868 56.4136 512.496 58.1026C514.125 59.7313 514.939 61.6616 514.939 63.8935C514.939 66.1254 514.125 68.0557 512.496 69.6844C510.868 71.3131 508.937 72.1274 506.706 72.1274ZM525.665 142.161V130.127H548.828C549.733 130.127 550.487 129.825 551.09 129.222C551.693 128.679 551.995 127.985 551.995 127.141V116.916H551.724C550.517 118.304 549.22 119.48 547.833 120.445C546.506 121.41 544.998 122.134 543.309 122.617C541.68 123.099 539.84 123.341 537.789 123.341C533.687 123.341 530.008 122.376 526.75 120.445C523.553 118.455 521.02 115.71 519.15 112.211C517.34 108.713 516.435 104.731 516.435 100.268C516.435 95.8641 517.37 91.8527 519.24 88.2334C521.171 84.6141 523.976 81.7186 527.655 79.547C531.335 77.3754 535.829 76.2896 541.137 76.2896C546.204 76.2896 550.577 77.3453 554.257 79.4565C557.997 81.5075 560.892 84.4331 562.943 88.2334C564.994 91.9733 566.02 96.3768 566.02 101.444V128.589C566.02 132.751 564.783 136.038 562.31 138.451C559.897 140.924 556.549 142.161 552.266 142.161H525.665ZM541.228 111.578C543.399 111.578 545.269 111.095 546.838 110.13C548.406 109.105 549.612 107.747 550.457 106.058C551.301 104.369 551.724 102.499 551.724 100.449C551.724 98.277 551.301 96.2863 550.457 94.4767C549.612 92.667 548.406 91.2495 546.838 90.224C545.269 89.1382 543.399 88.5953 541.228 88.5953C539.116 88.5953 537.246 89.108 535.618 90.1335C534.049 91.159 532.843 92.5464 531.998 94.2957C531.154 96.045 530.732 98.0055 530.732 100.177C530.732 102.288 531.154 104.219 531.998 105.968C532.843 107.657 534.049 109.014 535.618 110.04C537.246 111.065 539.116 111.578 541.228 111.578ZM593.684 124.879C588.919 124.879 584.636 123.823 580.836 121.712C577.035 119.601 574.019 116.705 571.787 113.026C569.616 109.346 568.53 105.214 568.53 100.63C568.53 95.9847 569.616 91.8527 571.787 88.2334C574.019 84.5537 577.035 81.6583 580.836 79.547C584.636 77.3754 588.919 76.2896 593.684 76.2896C598.45 76.2896 602.702 77.3754 606.442 79.547C610.243 81.6583 613.229 84.5537 615.4 88.2334C617.632 91.8527 618.748 95.9847 618.748 100.63C618.748 105.214 617.632 109.346 615.4 113.026C613.229 116.705 610.243 119.601 606.442 121.712C602.642 123.823 598.389 124.879 593.684 124.879ZM593.684 112.664C595.916 112.664 597.846 112.121 599.475 111.035C601.104 109.949 602.371 108.502 603.275 106.692C604.18 104.882 604.633 102.831 604.633 100.539C604.633 98.3071 604.18 96.2863 603.275 94.4767C602.371 92.667 601.104 91.2193 599.475 90.1335C597.846 89.0477 595.916 88.5048 593.684 88.5048C591.452 88.5048 589.492 89.0477 587.803 90.1335C586.174 91.2193 584.907 92.667 584.003 94.4767C583.098 96.2863 582.645 98.3071 582.645 100.539C582.645 102.831 583.098 104.882 584.003 106.692C584.907 108.502 586.174 109.949 587.803 111.035C589.492 112.121 591.452 112.664 593.684 112.664Z" fill="#7EFBC3"/>
<path d="M171.868 33V9.24827H173.938L184.796 27.7746H183.71L194.466 9.24827H196.536V33H194.127V13.0146H194.704L184.796 29.9801H183.608L173.633 13.0146H174.277V33H171.868ZM220.426 19.8687H232.981V22.0063H220.426V19.8687ZM220.698 30.8284H234.983V33H218.187V9.24827H234.474V11.4199H220.698V30.8284ZM254.796 33V9.24827H256.866L273.255 29.8783H272.169V9.24827H274.646V33H272.576L256.221 12.3699H257.307V33H254.796ZM300.925 33V11.4199H292.578V9.24827H311.783V11.4199H303.436V33H300.925ZM339.757 33.2036C337.97 33.2036 336.308 32.9095 334.769 32.3214C333.254 31.7106 331.931 30.8623 330.8 29.7766C329.691 28.6681 328.82 27.3901 328.187 25.9423C327.576 24.472 327.271 22.8659 327.271 21.1241C327.271 19.3823 327.576 17.7876 328.187 16.3399C328.82 14.8695 329.691 13.5914 330.8 12.5057C331.931 11.3972 333.254 10.549 334.769 9.96083C336.285 9.35007 337.948 9.04469 339.757 9.04469C341.544 9.04469 343.196 9.35007 344.711 9.96083C346.227 10.549 347.539 11.3859 348.647 12.4717C349.778 13.5575 350.649 14.8356 351.26 16.3059C351.893 17.7763 352.21 19.3823 352.21 21.1241C352.21 22.8659 351.893 24.472 351.26 25.9423C350.649 27.4127 349.778 28.6908 348.647 29.7766C347.539 30.8623 346.227 31.7106 344.711 32.3214C343.196 32.9095 341.544 33.2036 339.757 33.2036ZM339.757 30.9641C341.182 30.9641 342.494 30.7266 343.693 30.2516C344.915 29.7539 345.967 29.064 346.849 28.1818C347.754 27.277 348.455 26.2364 348.953 25.0601C349.45 23.8612 349.699 22.5492 349.699 21.1241C349.699 19.699 349.45 18.3983 348.953 17.2221C348.455 16.0232 347.754 14.9826 346.849 14.1004C345.967 13.1956 344.915 12.5057 343.693 12.0306C342.494 11.533 341.182 11.2841 339.757 11.2841C338.332 11.2841 337.009 11.533 335.787 12.0306C334.566 12.5057 333.503 13.1956 332.598 14.1004C331.716 14.9826 331.014 16.0232 330.494 17.2221C329.996 18.3983 329.748 19.699 329.748 21.1241C329.748 22.5266 329.996 23.8273 330.494 25.0262C331.014 26.2251 331.716 27.277 332.598 28.1818C333.503 29.064 334.566 29.7539 335.787 30.2516C337.009 30.7266 338.332 30.9641 339.757 30.9641ZM371.75 33V9.24827H380.64C382.653 9.24827 384.383 9.57628 385.831 10.2323C387.279 10.8657 388.387 11.7931 389.156 13.0146C389.948 14.2135 390.344 15.6726 390.344 17.3917C390.344 19.0657 389.948 20.5134 389.156 21.7349C388.387 22.9338 387.279 23.8612 385.831 24.5172C384.383 25.1506 382.653 25.4673 380.64 25.4673H373.141L374.261 24.3137V33H371.75ZM387.969 33L381.861 24.3815H384.576L390.717 33H387.969ZM374.261 24.5172L373.141 23.3297H380.572C382.947 23.3297 384.745 22.8094 385.967 21.7688C387.211 20.7283 387.833 19.2692 387.833 17.3917C387.833 15.4916 387.211 14.0212 385.967 12.9807C384.745 11.9401 382.947 11.4199 380.572 11.4199H373.141L374.261 10.2323V24.5172ZM410.182 33V9.24827H412.693V33H410.182ZM430.532 33L441.39 9.24827H443.867L454.725 33H452.079L442.103 10.7073H443.121L433.145 33H430.532ZM434.808 26.6549L435.554 24.619H449.364L450.111 26.6549H434.808Z" fill="white"/>
</svg>
